<?xml version="1.0" standalone="no"?>
<!DOCTYPE svg PUBLIC "-//W3C//DTD SVG 20010904//EN"
 "http://www.w3.org/TR/2001/REC-SVG-20010904/DTD/svg10.dtd">
<svg version="1.0" xmlns="http://www.w3.org/2000/svg"
 width="500.000000pt" height="500.000000pt" viewBox="0 0 500.000000 500.000000"
 preserveAspectRatio="xMidYMid meet">

<g transform="translate(0.000000,500.000000) scale(0.100000,-0.100000)"
fill="#000000" stroke="none">
<path d="M2660 2655 l0 -395 75 0 75 0 2 210 3 209 190 -214 c138 -155 196
-214 213 -214 l22 -1 0 390 0 390 -75 0 -75 0 -2 -217 -3 -217 -195 227 c-115
134 -202 227 -212 227 -17 0 -18 -25 -18 -395z"/>
<path d="M1278 3026 c-144 -42 -242 -157 -267 -313 -29 -180 69 -362 227 -424
68 -27 223 -33 285 -11 l38 14 -6 56 c-10 86 -14 95 -38 88 -149 -44 -265 -9
-320 94 -33 60 -40 110 -27 175 29 138 164 215 305 171 27 -8 50 -14 51 -13 1
1 5 34 9 74 7 66 6 72 -14 83 -34 18 -188 22 -243 6z"/>
<path d="M1965 3027 c-71 -24 -120 -54 -166 -104 -84 -89 -121 -217 -99 -340
31 -181 142 -295 318 -325 181 -31 351 53 426 211 29 62 31 73 31 181 0 103
-3 121 -26 170 -39 81 -99 144 -176 182 -60 29 -77 33 -167 35 -64 2 -116 -2
-141 -10z m190 -148 c60 -15 117 -67 145 -131 39 -92 18 -213 -48 -276 -90
-84 -242 -83 -327 3 -121 121 -71 351 86 400 55 17 88 18 144 4z"/>
<path d="M690 2645 l0 -385 75 0 75 0 0 385 0 385 -75 0 -75 0 0 -385z"/>
<path d="M3440 2645 l0 -385 75 0 75 0 0 385 0 385 -75 0 -75 0 0 -385z"/>
<path d="M3760 3025 c0 -3 40 -74 89 -158 48 -84 93 -162 100 -175 12 -22 -19
-81 -211 -399 l-20 -33 94 0 93 0 68 125 c38 69 73 127 77 130 5 3 41 -53 81
-125 l73 -130 88 0 c83 0 88 1 79 18 -6 10 -60 103 -121 206 l-111 188 101
172 c55 95 100 176 100 180 0 4 -39 5 -86 4 l-87 -3 -55 -103 c-31 -56 -59
-99 -63 -95 -4 5 -30 52 -59 106 l-52 97 -89 0 c-49 0 -89 -2 -89 -5z"/>
<path d="M1650 1755 c0 -78 3 -95 15 -95 11 0 15 11 15 40 0 36 3 40 25 40 16
0 25 6 25 15 0 9 -9 15 -25 15 -18 0 -25 5 -25 20 0 16 7 20 30 20 23 0 30 4
30 20 0 17 -7 20 -45 20 l-45 0 0 -95z"/>
<path d="M1907 1760 c-20 -49 -37 -92 -37 -95 0 -3 9 -5 20 -5 11 0 20 5 20
10 0 14 56 13 80 -2 10 -7 22 -9 26 -6 6 7 -51 164 -66 181 -3 4 -23 -33 -43
-83z m53 -31 c0 -10 -7 -19 -15 -19 -16 0 -19 9 -9 34 8 20 24 11 24 -15z"/>
<path d="M2165 1826 c-22 -33 -12 -60 31 -85 42 -25 36 -45 -12 -39 -27 3 -34
1 -34 -14 0 -41 95 -35 106 7 9 34 -1 53 -36 73 -37 21 -35 48 4 45 41 -3 31
31 -11 35 -25 3 -35 -2 -48 -22z"/>
<path d="M2410 1755 c0 -78 3 -95 15 -95 11 0 15 11 15 40 0 38 2 40 30 40 28
0 30 -2 30 -40 0 -33 3 -40 20 -40 19 0 20 7 20 95 0 88 -1 95 -20 95 -17 0
-20 -7 -20 -40 0 -38 -2 -40 -30 -40 -28 0 -30 2 -30 40 0 29 -4 40 -15 40
-12 0 -15 -17 -15 -95z"/>
<path d="M2690 1755 c0 -78 3 -95 15 -95 12 0 15 17 15 95 0 78 -3 95 -15 95
-12 0 -15 -17 -15 -95z"/>
<path d="M2915 1838 c-32 -19 -44 -41 -45 -81 0 -71 78 -120 141 -87 30 17 52
68 45 106 -12 60 -86 93 -141 62z m93 -46 c30 -39 6 -92 -42 -92 -39 0 -58 19
-58 57 0 54 66 77 100 35z"/>
<path d="M3200 1755 c0 -88 1 -95 20 -95 17 0 20 7 20 53 l1 52 49 -55 49 -55
1 98 c0 80 -3 97 -15 97 -11 0 -15 -12 -15 -50 0 -27 -3 -50 -7 -50 -5 1 -26
23 -48 50 -22 28 -43 50 -47 50 -5 0 -8 -43 -8 -95z"/>
</g>
</svg>
